<?xml version="1.0" standalone="no"?>
<!DOCTYPE svg PUBLIC "-//W3C//DTD SVG 20010904//EN"
 "http://www.w3.org/TR/2001/REC-SVG-20010904/DTD/svg10.dtd">
<svg version="1.0" xmlns="http://www.w3.org/2000/svg"
 width="512" height="512" viewBox="320 0 768 768"
 preserveAspectRatio="xMidYMid meet">

<g transform="translate(0.000000,768.000000) scale(0.100000,-0.100000)"
fill="#000000" stroke="none">
<path d="M4800 6969 c-408 -53 -718 -351 -802 -769 -10 -52 -13 -523 -13
-2385 l0 -2320 27 -100 c91 -333 333 -583 653 -672 l100 -28 2275 0 2275 0 85
23 c300 80 542 301 643 587 55 157 52 25 52 2535 l0 2325 -23 89 c-27 107 -95
254 -156 340 -59 83 -178 193 -265 246 -121 73 -234 111 -385 130 -99 12
-4370 11 -4466 -1z m1090 -792 c209 -95 510 -432 714 -799 20 -36 43 -71 50
-77 9 -8 33 -5 87 9 153 42 208 51 350 57 185 7 282 -6 515 -72 26 -8 27 -6
112 143 166 291 405 569 596 693 117 77 228 98 312 60 186 -84 257 -542 158
-1014 -60 -285 -160 -495 -314 -660 -39 -41 -70 -83 -70 -93 0 -36 51 -208 84
-284 39 -91 81 -155 150 -228 27 -29 47 -54 45 -56 -4 -4 -500 -102 -764 -151
-77 -14 -148 -28 -157 -31 -12 -4 -17 2 -20 23 -2 22 -9 29 -29 31 -31 4 -42
-8 -63 -73 -46 -144 -210 -209 -349 -141 -50 24 -107 75 -107 95 0 4 24 16 53
26 110 40 198 168 178 258 -12 49 -33 72 -90 99 -40 19 -65 22 -181 22 -126 1
-139 -1 -192 -26 -69 -32 -90 -62 -90 -126 0 -101 81 -200 190 -233 23 -7 42
-16 42 -20 0 -19 -57 -72 -104 -96 -40 -20 -66 -26 -117 -26 -113 0 -198 58
-234 159 -25 71 -30 79 -55 82 -46 7 -53 -54 -15 -137 14 -30 24 -55 23 -56
-6 -6 -730 -75 -780 -75 -17 0 -159 125 -158 139 1 3 23 22 50 41 55 39 80 81
61 104 -6 8 -32 19 -58 25 -61 16 -100 37 -113 61 -9 16 -5 25 23 52 60 58
126 147 161 216 36 72 92 236 102 302 7 40 5 43 -53 103 -128 132 -193 239
-264 438 -65 182 -91 310 -109 528 -11 139 -2 307 25 433 28 137 97 248 180
293 43 23 154 15 225 -18z m1360 -2242 c17 -9 30 -20 30 -26 0 -11 -50 -32
-58 -24 -3 3 -1 5 5 5 6 0 14 7 17 15 3 10 1 15 -7 13 -6 -1 -29 4 -49 11 -46
15 -95 11 -126 -11 -22 -15 -23 -17 -5 -28 16 -9 15 -10 -7 -4 -32 8 -44 19
-36 33 19 31 186 42 236 16z m1575 -186 c65 -60 146 -171 192 -264 135 -270
160 -562 64 -752 -52 -103 -58 -106 -287 -131 -1034 -112 -1365 -154 -1649
-207 -71 -13 -251 -45 -400 -70 -148 -25 -378 -66 -511 -90 -132 -25 -244 -45
-247 -45 -4 0 4 23 18 50 85 167 70 485 -36 762 -46 120 -116 243 -177 309
l-53 58 33 5 c18 3 161 17 318 31 157 14 353 32 435 40 l150 15 60 -27 c112
-52 261 -35 366 42 l44 31 56 -35 c52 -34 56 -40 68 -91 7 -30 19 -78 26 -106
14 -47 17 -51 40 -46 18 3 24 9 21 19 -28 72 -11 82 44 28 30 -29 41 -34 59
-27 21 8 20 9 -18 40 -41 33 -41 33 -26 63 9 16 13 34 10 39 -3 6 -2 10 4 10
5 0 16 3 25 6 12 5 16 -1 16 -23 0 -38 37 -94 73 -111 31 -15 94 -9 122 11 14
11 15 18 3 60 l-12 48 -41 -3 c-29 -2 -41 -8 -43 -20 -3 -13 3 -18 21 -18 17
0 26 -7 30 -21 12 -45 -64 -36 -88 11 -31 59 -14 88 55 97 24 4 40 11 40 19 0
8 16 34 35 59 19 25 38 51 42 58 5 7 109 31 238 56 127 23 361 68 520 100 160
33 296 59 303 60 7 0 33 -18 57 -40z m-1451 -358 c11 -17 -6 -41 -29 -41 -16
0 -24 7 -27 25 -5 22 -2 25 23 25 15 0 30 -4 33 -9z m-1663 -110 c68 -68 89
-103 50 -81 -28 15 -87 12 -121 -5 -126 -65 -149 -354 -49 -629 52 -145 122
-226 196 -226 48 0 78 23 104 83 43 101 23 332 -41 458 -34 66 -63 89 -110 89
-35 0 -43 -4 -60 -32 -25 -41 -27 -137 -4 -205 23 -67 29 -73 63 -60 l28 10
-19 59 c-18 61 -23 114 -12 143 12 30 42 -13 70 -99 22 -66 27 -102 28 -191 2
-159 -24 -209 -82 -160 -90 76 -172 393 -142 554 29 157 87 192 180 105 58
-54 116 -166 156 -299 25 -82 27 -106 28 -255 1 -151 -1 -170 -23 -223 -28
-71 -72 -123 -110 -132 -87 -19 -200 101 -283 300 -116 279 -117 716 -1 837
45 47 74 39 154 -41z m-63 -1094 c67 -68 111 -87 207 -87 74 0 80 -2 119 -33
23 -19 82 -61 133 -95 50 -34 95 -67 99 -74 4 -6 6 -35 5 -63 -3 -68 30 -155
74 -193 18 -16 37 -31 42 -33 5 -2 23 -42 41 -88 18 -46 46 -104 62 -128 17
-24 30 -46 30 -47 0 -11 -308 -3 -387 9 -342 55 -534 261 -574 617 -12 106 -4
219 23 326 l11 43 34 -53 c19 -29 56 -74 81 -101z m-494 51 c41 -64 121 -134
197 -173 l47 -24 7 -68 c8 -83 28 -173 54 -248 l20 -56 -32 6 c-18 3 -64 22
-103 41 -120 57 -225 186 -260 319 -17 61 -18 205 -3 260 10 35 13 38 23 22 6
-10 29 -46 50 -79z m3039 -191 c-10 -10 -25 -23 -34 -28 -15 -8 -15 -4 -2 44
23 84 24 85 39 43 13 -35 12 -41 -3 -59z m224 -57 c56 -33 77 -90 77 -200 1
-115 -25 -200 -84 -283 -52 -72 -106 -99 -212 -105 l-78 -5 0 49 c0 60 -26
118 -75 173 l-37 41 46 43 c30 27 52 59 64 92 38 106 85 168 147 196 52 24
112 24 152 -1z m-542 -270 l60 -11 -3 -47 c-3 -45 -1 -50 46 -97 60 -61 73
-108 47 -173 -19 -47 -35 -55 -35 -17 0 38 -25 92 -49 105 -27 14 -36 -5 -21
-44 14 -37 13 -89 -2 -109 -8 -9 -34 -20 -60 -23 l-48 -7 0 43 c0 49 -24 106
-52 121 -29 16 -33 5 -18 -55 11 -48 11 -58 -3 -79 -15 -23 -20 -24 -62 -16
-105 20 -180 74 -219 159 -14 33 -21 73 -24 147 l-4 102 33 5 c79 13 100 14
224 11 72 -2 157 -9 190 -15z m-928 2 c18 -12 93 -227 93 -267 0 -43 -15 -84
-42 -112 -29 -31 -34 -29 -42 16 -7 48 -46 97 -69 88 -15 -5 -15 -10 -1 -50
11 -32 13 -55 6 -78 -8 -34 -8 -34 -75 -37 l-67 -3 0 38 c0 46 -29 107 -52
111 -15 3 -17 -5 -15 -56 1 -33 -1 -64 -5 -68 -15 -14 -90 30 -135 80 -52 58
-84 118 -108 200 -14 49 -15 60 -4 67 23 15 168 59 223 68 66 11 277 13 293 3z
m400 -96 c1 -46 6 -100 11 -119 l10 -35 -52 -21 c-50 -20 -140 -41 -177 -41
-16 0 -19 8 -19 54 0 35 -11 85 -30 139 -16 47 -30 88 -30 91 0 3 51 7 113 9
61 1 126 4 142 5 l30 2 2 -84z"/>
<path d="M5798 5969 c-21 -11 -38 -20 -38 -22 0 -1 14 -3 32 -4 124 -9 305
-187 440 -433 33 -60 108 -239 108 -258 0 -4 -31 -6 -70 -4 -85 5 -110 0 -149
-34 -47 -39 -41 -110 14 -176 l25 -30 -71 -76 c-76 -81 -129 -163 -129 -199 0
-12 9 -27 21 -33 27 -15 39 -4 95 82 24 38 76 100 114 137 39 38 70 78 70 88
0 10 -16 35 -36 54 -20 18 -42 46 -50 61 -13 25 -12 28 5 38 27 14 103 12 179
-4 75 -15 87 -7 79 53 -7 56 -90 258 -154 374 -125 230 -308 408 -418 406 -16
0 -47 -9 -67 -20z"/>
<path d="M8368 5976 c-173 -62 -381 -348 -494 -680 -19 -54 -34 -107 -34 -117
0 -31 31 -40 91 -24 87 23 189 15 189 -15 0 -6 -17 -29 -39 -53 -73 -80 -73
-76 22 -175 46 -48 101 -115 122 -150 35 -58 41 -63 69 -60 22 2 32 9 34 23 4
28 -62 132 -136 215 l-64 71 27 35 c92 120 24 214 -145 202 -82 -6 -81 -18
-17 132 127 297 296 499 470 560 l52 19 -37 15 c-45 19 -61 19 -110 2z"/>
<path d="M6515 4497 c-86 -35 -135 -110 -135 -206 1 -219 260 -292 358 -101
31 61 30 151 -1 211 -43 80 -148 126 -222 96z m149 -88 c58 -46 3 -136 -68
-109 -45 17 -51 94 -9 119 27 16 48 13 77 -10z"/>
<path d="M7657 4495 c-81 -28 -127 -99 -127 -195 0 -130 77 -220 188 -220 129
0 222 146 177 279 -21 65 -58 109 -110 132 -47 22 -77 23 -128 4z m55 -82 c22
-20 23 -70 1 -95 -20 -22 -70 -23 -95 -1 -10 9 -18 29 -18 45 0 57 70 89 112
51z"/>
<path d="M8682 3633 c-5 -10 -12 -31 -16 -47 l-7 -29 -37 37 c-34 32 -82 49
-82 28 0 -4 24 -32 54 -61 33 -33 58 -67 65 -92 8 -26 18 -39 30 -39 27 0 29
7 18 50 -10 36 -2 97 20 158 8 19 -35 14 -45 -5z"/>
<path d="M8400 3591 c0 -14 49 -184 55 -189 2 -3 33 -1 67 4 45 6 63 13 63 24
0 11 -11 15 -47 13 l-48 -1 -23 76 c-19 63 -28 78 -45 80 -12 2 -22 -1 -22 -7z"/>
<path d="M8298 3585 c-3 -3 2 -32 12 -63 10 -31 23 -76 29 -99 11 -42 24 -51
48 -35 19 12 -43 202 -66 202 -10 0 -20 -2 -23 -5z"/>
<path d="M8148 3563 c-10 -2 -18 -14 -19 -26 0 -12 -4 -59 -7 -104 -7 -82 -7
-83 15 -83 16 0 23 6 23 20 0 39 81 56 100 20 10 -20 60 -29 60 -12 0 17 -131
192 -143 191 -7 -1 -20 -3 -29 -6z m63 -95 c6 -12 6 -18 0 -18 -5 0 -16 -3
-25 -6 -13 -5 -16 2 -16 37 1 42 1 43 16 24 9 -11 20 -28 25 -37z"/>
<path d="M7883 3523 c-13 -2 -23 -5 -23 -6 1 -1 13 -47 28 -102 27 -100 28
-100 57 -97 95 10 130 41 122 108 -7 67 -40 96 -109 100 -29 1 -63 0 -75 -3z
m121 -55 c23 -32 21 -85 -3 -98 -37 -19 -47 -11 -64 50 -10 33 -17 62 -17 65
0 3 15 5 34 5 25 0 39 -7 50 -22z"/>
<path d="M7684 3473 c4 -9 16 -54 28 -100 18 -75 23 -83 44 -83 27 0 28 1 13
55 -37 143 -38 145 -65 145 -20 0 -25 -4 -20 -17z"/>
<path d="M7080 3403 c-51 -19 -68 -95 -33 -153 31 -53 117 -68 167 -29 45 35
30 134 -26 173 -22 16 -78 20 -108 9z m76 -41 c31 -20 44 -88 22 -110 -20 -20
-65 -14 -82 10 -16 22 -22 89 -9 101 9 9 55 9 69 -1z"/>
<path d="M6855 3355 c-42 -41 -28 -131 27 -169 27 -19 97 -21 122 -3 24 18 11
51 -14 37 -51 -27 -110 11 -110 71 0 36 37 63 74 53 22 -5 26 -3 26 15 0 19
-6 21 -50 21 -41 0 -56 -5 -75 -25z"/>
<path d="M6623 3338 c-29 -5 -53 -15 -53 -21 0 -7 11 -52 24 -102 25 -99 17
-93 107 -81 39 6 46 10 42 25 -4 15 -12 18 -47 14 -40 -5 -44 -3 -48 20 -4 22
-1 26 29 32 48 9 44 35 -6 35 -34 0 -51 12 -51 35 0 2 18 6 41 10 29 5 39 11
37 23 -4 20 -13 21 -75 10z"/>
<path d="M6467 3314 c-3 -3 -2 -17 4 -31 17 -47 13 -54 -33 -51 -38 3 -43 6
-52 36 -9 32 -20 38 -42 24 -9 -5 -5 -34 14 -104 23 -90 27 -98 49 -98 23 0
24 3 17 33 -12 56 -11 60 26 68 44 9 47 7 55 -41 6 -34 11 -40 31 -40 29 0 31
17 9 81 -7 24 -19 63 -25 87 -8 30 -16 42 -29 42 -10 0 -20 -3 -24 -6z"/>
<path d="M6210 3276 c-55 -8 -75 -15 -75 -26 0 -10 12 -16 32 -18 33 -3 39
-16 68 -134 5 -21 13 -28 31 -28 29 0 29 -2 4 89 -21 76 -18 90 18 91 6 0 12
9 12 20 0 11 -3 19 -7 19 -5 -1 -42 -7 -83 -13z"/>
<path d="M8703 3266 c3 -7 9 -34 12 -60 8 -54 25 -62 25 -12 0 19 4 37 9 40
10 7 21 -17 21 -46 0 -11 5 -18 13 -15 14 4 11 55 -5 75 -6 7 -19 10 -28 7
-11 -3 -20 1 -24 10 -3 8 -10 15 -17 15 -6 0 -9 -6 -6 -14z"/>
<path d="M8823 3263 c-18 -7 -16 -58 2 -73 16 -13 69 -5 60 9 -3 5 -14 7 -24
4 -10 -3 -22 0 -25 6 -5 7 3 11 18 11 28 0 34 18 14 38 -13 13 -24 14 -45 5z
m37 -23 c0 -5 -7 -10 -15 -10 -8 0 -15 5 -15 10 0 6 7 10 15 10 8 0 15 -4 15
-10z"/>
<path d="M8647 3246 c-3 -8 -1 -30 5 -50 9 -28 17 -36 35 -36 13 0 23 5 23 10
0 6 -6 10 -14 10 -16 0 -30 43 -16 48 6 2 10 8 10 13 0 6 -4 7 -10 4 -5 -3
-10 -1 -10 4 0 16 -17 13 -23 -3z"/>
<path d="M8370 3220 c0 -5 7 -10 15 -10 8 0 15 5 15 10 0 6 -7 10 -15 10 -8 0
-15 -4 -15 -10z"/>
<path d="M8535 3215 c-9 -7 -11 -25 -6 -60 5 -41 10 -51 27 -53 26 -4 55 23
48 43 -4 8 -18 15 -33 16 -24 0 -25 1 -5 9 29 12 30 59 2 57 -11 -1 -26 -6
-33 -12z m26 -18 c-1 -12 -15 -9 -19 4 -3 6 1 10 8 8 6 -3 11 -8 11 -12z m19
-67 c0 -5 -7 -10 -15 -10 -8 0 -15 5 -15 10 0 6 7 10 15 10 8 0 15 -4 15 -10z"/>
<path d="M8280 3206 c0 -37 14 -106 21 -106 5 0 9 16 9 35 0 24 5 35 15 35 9
0 15 -9 15 -24 0 -24 16 -43 26 -33 3 3 1 20 -4 38 -7 29 -13 34 -35 32 -21
-1 -27 3 -27 18 0 10 -4 19 -10 19 -5 0 -10 -6 -10 -14z"/>
<path d="M8432 3166 c2 -23 9 -41 17 -44 11 -4 12 3 7 32 -6 29 -4 36 9 36 9
0 18 -12 22 -30 7 -35 23 -40 23 -7 0 35 -17 52 -50 52 -30 1 -31 -1 -28 -39z"/>
<path d="M8386 3163 c7 -42 11 -49 20 -40 10 9 -5 77 -17 77 -6 0 -7 -15 -3
-37z"/>
<path d="M8140 3165 c-8 -9 -8 -15 0 -20 5 -3 10 -17 10 -31 0 -28 25 -43 43
-25 8 8 7 11 -6 11 -11 0 -17 8 -17 25 0 14 5 25 10 25 18 0 11 18 -10 23 -10
3 -24 -1 -30 -8z"/>
<path d="M8215 3164 c-9 -9 -14 -23 -11 -31 3 -8 6 -18 6 -23 0 -12 34 -22 54
-14 24 9 20 24 -6 21 -17 -1 -24 4 -26 21 -3 17 2 22 18 22 12 0 18 5 15 10
-9 15 -31 12 -50 -6z"/>
<path d="M7975 3160 c-6 -10 -1 -48 11 -93 3 -9 10 -15 15 -11 5 3 7 14 4 25
-4 13 -2 19 9 19 9 0 16 5 16 10 0 6 -6 10 -14 10 -24 0 -30 21 -7 27 12 3 21
9 21 14 0 12 -47 11 -55 -1z"/>
<path d="M8069 3141 c-19 -16 -22 -23 -13 -37 16 -27 39 -38 60 -29 17 8 16 9
-8 13 -35 4 -37 22 -3 22 29 0 32 12 9 34 -19 20 -17 20 -45 -3z m31 -11 c0
-5 -7 -10 -16 -10 -8 0 -12 5 -9 10 3 6 10 10 16 10 5 0 9 -4 9 -10z"/>
<path d="M7774 3095 c-7 -18 3 -35 22 -35 8 0 14 -5 14 -11 0 -6 -7 -8 -16 -5
-10 4 -14 1 -12 -6 6 -18 22 -20 43 -4 16 12 17 16 6 30 -7 9 -20 16 -28 16
-8 0 -11 5 -8 10 4 6 11 8 16 5 5 -4 9 -1 9 4 0 16 -40 13 -46 -4z"/>
<path d="M7687 3093 c-4 -3 -7 -18 -8 -32 l-1 -26 -11 28 c-11 27 -27 37 -27
17 0 -18 30 -70 39 -70 5 0 14 12 19 28 9 26 9 27 16 5 13 -39 36 -28 36 17 0
41 -19 58 -21 18 l0 -23 -11 23 c-11 23 -20 27 -31 15z"/>
<path d="M7440 3066 c0 -40 12 -86 23 -86 6 0 7 15 4 38 l-6 37 28 -32 c15
-18 34 -33 43 -33 13 0 14 7 5 50 -5 28 -14 50 -19 50 -6 0 -7 -15 -3 -36 l6
-36 -31 36 c-37 42 -50 45 -50 12z"/>
<path d="M7880 3080 c0 -5 9 -10 20 -10 11 0 20 5 20 10 0 6 -9 10 -20 10 -11
0 -20 -4 -20 -10z"/>
<path d="M7564 3066 c-3 -9 -3 -27 0 -41 5 -20 13 -25 36 -25 16 0 32 5 36 11
5 8 -1 10 -19 5 -14 -3 -28 -2 -31 3 -3 5 6 12 20 15 17 5 24 12 22 24 -4 23
-56 29 -64 8z m41 -6 c3 -5 -1 -10 -10 -10 -9 0 -13 5 -10 10 3 6 8 10 10 10
2 0 7 -4 10 -10z"/>
<path d="M7263 3050 c4 -15 0 -20 -14 -20 -24 0 -33 -21 -25 -55 5 -21 12 -24
42 -23 l35 1 -6 41 c-4 23 -9 49 -11 59 -7 24 -28 22 -21 -3z m7 -66 c0 -26
-17 -33 -26 -9 -8 20 3 48 16 40 5 -3 10 -17 10 -31z"/>
<path d="M7325 3036 c-16 -12 -18 -19 -10 -43 11 -30 49 -43 68 -24 8 8 3 11
-16 11 -15 0 -27 5 -27 10 0 6 11 10 25 10 29 0 32 12 9 34 -19 20 -25 20 -49
2z m35 -16 c0 -5 -7 -10 -16 -10 -8 0 -12 5 -9 10 3 6 10 10 16 10 5 0 9 -4 9
-10z"/>
<path d="M7040 3011 c-24 -45 5 -96 51 -89 33 5 36 27 4 25 -34 -3 -55 25 -39
51 7 9 19 16 28 14 9 -2 16 2 16 8 0 18 -49 11 -60 -9z"/>
<path d="M6940 3010 c0 -5 5 -10 10 -10 6 0 10 5 10 10 0 6 -4 10 -10 10 -5 0
-10 -4 -10 -10z"/>
<path d="M7143 3013 c-18 -7 -16 -58 2 -73 17 -14 51 -5 59 17 8 19 -19 63
-37 62 -6 0 -18 -3 -24 -6z m40 -26 c7 -19 -8 -41 -22 -33 -16 10 -14 46 3 46
8 0 16 -6 19 -13z"/>
<path d="M8020 2983 c0 -31 15 -60 23 -47 7 13 -4 74 -14 74 -5 0 -9 -12 -9
-27z"/>
<path d="M6948 2985 c-10 -10 7 -78 21 -83 11 -4 13 3 8 28 -4 18 -7 39 -7 46
0 14 -12 19 -22 9z"/>
<path d="M6874 2972 c-6 -4 -9 -29 -8 -57 2 -46 4 -50 29 -53 31 -4 56 13 48
34 -3 8 -17 14 -31 14 l-26 0 22 16 c30 20 29 54 0 54 -13 0 -28 -4 -34 -8z
m36 -22 c0 -5 -7 -10 -15 -10 -8 0 -15 5 -15 10 0 6 7 10 15 10 8 0 15 -4 15
-10z m10 -70 c0 -5 -6 -10 -14 -10 -8 0 -18 5 -21 10 -3 6 3 10 14 10 12 0 21
-4 21 -10z"/>
<path d="M7887 2966 c-3 -7 -2 -28 2 -47 5 -25 13 -35 29 -37 12 -2 22 1 22 7
0 6 -7 11 -15 11 -17 0 -20 31 -5 46 6 6 3 14 -9 21 -15 9 -20 9 -24 -1z"/>
<path d="M6628 2959 c-21 -12 -24 -69 -6 -87 15 -15 65 -16 74 0 5 8 0 9 -15
5 -27 -7 -53 18 -49 47 2 13 12 22 26 24 12 2 22 8 22 13 0 12 -30 11 -52 -2z"/>
<path d="M6825 2960 c-3 -5 -13 -6 -22 -3 -13 5 -15 2 -10 -11 4 -10 7 -29 7
-43 0 -15 5 -23 13 -20 7 2 11 15 9 30 -2 18 2 29 12 33 9 3 16 10 16 15 0 12
-17 12 -25 -1z"/>
<path d="M7945 2960 c-8 -13 13 -40 31 -40 8 0 14 -4 14 -10 0 -5 -10 -10 -22
-10 -16 0 -19 -3 -11 -11 8 -8 17 -8 32 0 27 15 27 41 1 48 -11 3 -20 10 -20
15 0 6 7 8 15 4 8 -3 15 -1 15 4 0 13 -47 13 -55 0z"/>
<path d="M6716 2944 c-19 -18 -20 -28 -6 -55 12 -21 40 -25 58 -7 18 18 14 56
-7 68 -25 13 -27 13 -45 -6z m42 -32 c2 -14 -2 -22 -11 -22 -17 0 -30 27 -21
41 9 16 29 4 32 -19z"/>
<path d="M7807 2943 c-14 -13 -6 -21 16 -17 l22 5 -22 -12 c-46 -24 -29 -66
21 -53 26 6 31 20 20 62 -6 21 -42 31 -57 15z m38 -53 c-3 -5 -10 -10 -16 -10
-5 0 -9 5 -9 10 0 6 7 10 16 10 8 0 12 -4 9 -10z"/>
<path d="M6440 2924 c0 -11 6 -14 20 -9 24 8 27 -12 5 -41 -8 -10 -15 -25 -15
-31 0 -15 56 -18 65 -3 4 6 -5 10 -20 10 l-26 0 22 30 c18 24 20 32 9 45 -17
20 -60 20 -60 -1z"/>
<path d="M7723 2933 c-18 -7 -16 -58 2 -73 16 -14 47 -10 52 6 2 7 -6 10 -22
7 -15 -3 -25 -1 -25 6 0 6 11 11 25 11 27 0 33 18 13 38 -13 13 -24 14 -45 5z
m37 -23 c0 -5 -7 -10 -15 -10 -8 0 -15 5 -15 10 0 6 7 10 15 10 8 0 15 -4 15
-10z"/>
<path d="M7490 2916 c0 -7 -9 -16 -20 -19 -27 -7 -35 -33 -21 -64 10 -21 16
-24 39 -18 15 4 29 8 31 10 7 7 -11 105 -20 105 -5 0 -9 -6 -9 -14z m5 -61 c0
-10 -5 -20 -11 -22 -13 -4 -27 24 -18 38 9 15 29 4 29 -16z"/>
<path d="M7578 2918 c-8 -21 12 -78 28 -85 23 -8 28 4 10 22 -19 20 -21 41 -3
48 9 4 8 8 -3 16 -20 14 -27 14 -32 -1z"/>
<path d="M7658 2923 c-19 -5 -22 -22 -12 -60 9 -33 24 -28 24 6 0 17 5 33 10
36 12 7 14 26 3 24 -5 -1 -16 -3 -25 -6z"/>
<path d="M6322 2908 c-16 -16 -15 -31 2 -25 10 4 16 -6 20 -34 3 -21 11 -39
17 -39 8 0 9 15 4 48 -10 65 -18 75 -43 50z"/>
<path d="M6520 2910 c0 -5 7 -10 15 -10 8 0 15 5 15 10 0 6 -7 10 -15 10 -8 0
-15 -4 -15 -10z"/>
<path d="M8030 2911 c0 -6 5 -13 10 -16 6 -3 10 1 10 9 0 9 -4 16 -10 16 -5 0
-10 -4 -10 -9z"/>
<path d="M6277 2880 c-3 -8 -8 -24 -10 -35 -3 -18 -5 -17 -17 8 -7 15 -19 27
-27 27 -18 0 -17 -5 10 -45 28 -44 44 -44 53 -1 7 39 0 72 -9 46z"/>
<path d="M7364 2880 c-18 -7 -21 -14 -15 -41 8 -41 30 -50 28 -12 -3 40 15 44
25 5 5 -19 13 -30 19 -26 18 11 -9 85 -30 83 -3 0 -16 -4 -27 -9z"/>
<path d="M7266 2861 c-4 -5 4 -12 16 -14 l23 -4 -22 -8 c-25 -8 -32 -42 -10
-50 6 -3 24 -2 38 3 26 7 26 9 15 42 -11 35 -47 53 -60 31z m39 -51 c-3 -5
-10 -10 -16 -10 -5 0 -9 5 -9 10 0 6 7 10 16 10 8 0 12 -4 9 -10z"/>
<path d="M6530 2850 c0 -5 7 -10 15 -10 8 0 15 5 15 10 0 6 -7 10 -15 10 -8 0
-15 -4 -15 -10z"/>
<path d="M7130 2842 c0 -4 5 -13 11 -19 8 -8 8 -17 0 -31 -14 -26 3 -40 17
-15 9 14 12 15 26 4 22 -19 33 -5 13 16 -11 13 -13 23 -6 36 8 13 6 17 -6 17
-8 0 -15 -5 -15 -12 0 -9 -3 -9 -12 0 -14 14 -28 16 -28 4z"/>
<path d="M6405 2830 c3 -5 10 -10 16 -10 5 0 9 5 9 10 0 6 -7 10 -16 10 -8 0
-12 -4 -9 -10z"/>
<path d="M6976 2824 c-8 -22 20 -84 38 -84 9 0 16 5 16 10 0 6 -4 10 -9 10
-17 0 -24 42 -10 51 12 8 11 11 -1 19 -21 13 -27 12 -34 -6z"/>
<path d="M7053 2834 c-24 -10 -13 -24 15 -19 l27 6 -28 -16 c-39 -22 -32 -51
12 -48 18 0 34 3 36 5 2 2 0 19 -4 38 -7 35 -28 47 -58 34z m37 -54 c0 -5 -7
-10 -16 -10 -8 0 -12 5 -9 10 3 6 10 10 16 10 5 0 9 -4 9 -10z"/>
<path d="M6903 2813 c-23 -4 -30 -33 -17 -67 11 -28 25 -17 22 16 -4 42 20 50
28 9 9 -42 24 -50 24 -12 0 23 -24 67 -33 60 -1 -1 -12 -4 -24 -6z"/>
<path d="M6788 2795 c-3 -3 4 -24 16 -47 15 -30 18 -42 9 -45 -20 -7 -15 -23
6 -23 21 0 26 10 36 78 5 28 3 42 -4 42 -6 0 -11 -9 -11 -20 0 -25 -8 -25 -29
1 -9 11 -19 18 -23 14z"/>
<path d="M6617 2776 c-3 -8 -1 -31 4 -50 8 -29 15 -36 34 -36 14 0 25 5 25 10
0 6 -6 10 -14 10 -16 0 -28 37 -15 46 5 3 3 12 -5 20 -18 18 -22 18 -29 0z"/>
<path d="M6723 2774 c-4 -11 2 -23 18 -35 l24 -19 -24 0 c-18 0 -22 -3 -14
-11 16 -16 53 -1 53 21 0 10 -9 22 -20 25 -11 3 -20 10 -20 15 0 5 7 7 15 4 8
-4 15 -1 15 5 0 17 -40 13 -47 -5z"/>
<path d="M6558 2763 c-24 -6 -23 -40 2 -48 25 -8 26 -22 3 -28 -12 -3 -8 -5 9
-6 40 -2 45 19 12 47 -16 13 -21 22 -11 18 9 -3 17 -1 17 4 0 12 -12 17 -32
13z"/>
<path d="M6389 2744 c-9 -11 -9 -18 -2 -22 6 -4 13 -18 14 -32 3 -17 11 -26
27 -28 12 -2 22 1 22 7 0 6 -7 11 -15 11 -17 0 -20 31 -5 46 6 6 3 14 -9 21
-16 10 -22 9 -32 -3z"/>
<path d="M6255 2708 c10 -63 15 -79 26 -72 5 3 8 13 5 22 -2 10 -7 34 -11 55
-3 20 -11 37 -16 37 -7 0 -8 -15 -4 -42z"/>
<path d="M6460 2735 c-22 -26 3 -65 40 -65 38 0 40 20 3 21 l-28 0 25 10 c31
13 32 13 24 33 -8 20 -47 21 -64 1z m45 -5 c3 -5 -1 -10 -10 -10 -9 0 -13 5
-10 10 3 6 8 10 10 10 2 0 7 -4 10 -10z"/>
<path d="M6305 2720 c-7 -11 0 -13 29 -10 11 1 15 -3 12 -9 -4 -6 -13 -11 -21
-11 -16 0 -26 -23 -15 -39 5 -9 18 -11 39 -6 30 6 32 9 25 38 -3 18 -8 35 -11
40 -6 11 -51 9 -58 -3z m45 -50 c0 -5 -4 -10 -10 -10 -5 0 -10 5 -10 10 0 6 5
10 10 10 6 0 10 -4 10 -10z"/>
<path d="M6706 2608 c-9 -28 -14 -53 -11 -56 3 -3 5 -1 5 5 0 6 7 14 16 17 8
3 12 2 9 -3 -3 -5 -1 -12 5 -16 5 -3 10 -2 10 4 0 5 3 17 6 26 4 10 2 15 -7
13 -18 -4 -14 43 4 54 9 5 7 8 -4 8 -10 0 -22 -18 -33 -52z"/>
<path d="M6620 2339 c0 -11 37 -12 43 -1 3 4 -6 8 -19 8 -13 1 -24 -2 -24 -7z"/>
</g>
</svg>
